<svg width="512" height="512" version="1.1" xmlns="http://www.w3.org/2000/svg" desc="Created with imagetracer.js version 1.2.6" ><path fill="rgb(0,0,0)" stroke="rgb(0,0,0)" stroke-width="1" opacity="0.803921568627451" d="M 128.5 43 L 135 43.5 L 128.5 44 L 128.5 43 Z " /><path fill="rgb(0,0,0)" stroke="rgb(0,0,0)" stroke-width="1" opacity="0.803921568627451" d="M 149.5 43 L 156 43.5 L 149.5 44 L 149.5 43 Z " /><path fill="rgb(0,0,0)" stroke="rgb(0,0,0)" stroke-width="1" opacity="0.803921568627451" d="M 356.5 43 L 363 43.5 L 356.5 44 L 356.5 43 Z " /><path fill="rgb(0,0,0)" stroke="rgb(0,0,0)" stroke-width="1" opacity="0.803921568627451" d="M 377.5 43 L 384 43.5 L 377.5 44 L 377.5 43 Z " /><path fill="rgb(0,0,0)" stroke="rgb(0,0,0)" stroke-width="1" opacity="0.803921568627451" d="M 120.5 44 L 124 44.5 L 120.5 45 L 120.5 44 Z " /><path fill="rgb(0,0,0)" stroke="rgb(0,0,0)" stroke-width="1" opacity="0.803921568627451" d="M 160.5 44 L 164 44.5 L 160.5 45 L 160.5 44 Z " /><path fill="rgb(0,0,0)" stroke="rgb(0,0,0)" stroke-width="1" opacity="0.803921568627451" d="M 348.5 44 L 352 44.5 L 348.5 45 L 348.5 44 Z " /><path fill="rgb(0,0,0)" stroke="rgb(0,0,0)" stroke-width="1" opacity="0.803921568627451" d="M 388.5 44 L 392 44.5 L 388.5 45 L 388.5 44 Z " /><path fill="rgb(0,0,0)" stroke="rgb(0,0,0)" stroke-width="1" opacity="0.803921568627451" d="M 167.5 45 L 170 45.5 L 167.5 46 L 167.5 45 Z " /><path fill="rgb(0,0,0)" stroke="rgb(0,0,0)" stroke-width="1" opacity="0.803921568627451" d="M 342.5 45 L 345 45.5 L 342.5 46 L 342.5 45 Z " /><path fill="rgb(0,0,0)" stroke="rgb(0,0,0)" stroke-width="1" opacity="0.803921568627451" d="M 440.5 61 L 441.5 63 L 440.5 61 Z " /><path fill="rgb(0,0,0)" stroke="rgb(0,0,0)" stroke-width="1" opacity="0.803921568627451" d="M 214.5 62 L 215.5 64 L 214.5 62 Z " /><path fill="rgb(0,0,0)" stroke="rgb(0,0,0)" stroke-width="1" opacity="0.803921568627451" d="M 297.5 62 L 296.5 64 L 297.5 62 Z " /><path fill="rgb(0,0,0)" stroke="rgb(0,0,0)" stroke-width="1" opacity="0.803921568627451" d="M 66.5 64 L 65.5 66 L 66.5 64 Z " /><path fill="rgb(0,0,0)" stroke="rgb(0,0,0)" stroke-width="1" opacity="0.803921568627451" d="M 294.5 64 L 293.5 66 L 294.5 64 Z " /><path fill="rgb(0,0,0)" stroke="rgb(0,0,0)" stroke-width="1" opacity="0.803921568627451" d="M 445.5 64 L 446.5 66 L 445.5 64 Z " /><path fill="rgb(0,0,0)" stroke="rgb(0,0,0)" stroke-width="1" opacity="0.803921568627451" d="M 63.5 66 L 62.5 68 L 63.5 66 Z " /><path fill="rgb(0,0,0)" stroke="rgb(0,0,0)" stroke-width="1" opacity="0.803921568627451" d="M 448.5 66 L 449.5 68 L 448.5 66 Z " /><path fill="rgb(0,0,0)" stroke="rgb(0,0,0)" stroke-width="1" opacity="0.803921568627451" d="M 60.5 68 L 59.5 70 L 60.5 68 Z " /><path fill="rgb(0,0,0)" stroke="rgb(0,0,0)" stroke-width="1" opacity="0.803921568627451" d="M 223.5 68 L 224.5 70 L 223.5 68 Z " /><path fill="rgb(0,0,0)" stroke="rgb(0,0,0)" stroke-width="1" opacity="0.803921568627451" d="M 288.5 68 L 287.5 70 L 288.5 68 Z " /><path fill="rgb(0,0,0)" stroke="rgb(0,0,0)" stroke-width="1" opacity="0.803921568627451" d="M 451.5 68 L 452.5 70 L 451.5 68 Z " /><path fill="rgb(0,0,0)" stroke="rgb(0,0,0)" stroke-width="1" opacity="0.803921568627451" d="M 226.5 70 L 227.5 72 L 226.5 70 Z " /><path fill="rgb(0,0,0)" stroke="rgb(0,0,0)" stroke-width="1" opacity="0.803921568627451" d="M 285.5 70 L 283.5 73 L 285.5 70 Z " /><path fill="rgb(0,0,0)" stroke="rgb(0,0,0)" stroke-width="1" opacity="0.803921568627451" d="M 56.5 71 L 55.5 73 L 56.5 71 Z " /><path fill="rgb(0,0,0)" stroke="rgb(0,0,0)" stroke-width="1" opacity="0.803921568627451" d="M 455.5 71 L 456.5 73 L 455.5 71 Z " /><path fill="rgb(0,0,0)" stroke="rgb(0,0,0)" stroke-width="1" opacity="0.803921568627451" d="M 230.5 73 L 232.5 76 L 230.5 73 Z " /><path fill="rgb(0,0,0)" stroke="rgb(0,0,0)" stroke-width="1" opacity="0.803921568627451" d="M 281.5 73 L 279.5 76 L 281.5 73 Z " /><path fill="rgb(0,0,0)" stroke="rgb(0,0,0)" stroke-width="1" opacity="0.803921568627451" d="M 52.5 74 L 49.5 78 L 52.5 74 Z " /><path fill="rgb(0,0,0)" stroke="rgb(0,0,0)" stroke-width="1" opacity="0.803921568627451" d="M 459.5 74 L 462.5 78 L 459.5 74 Z " /><path fill="rgb(0,0,0)" stroke="rgb(0,0,0)" stroke-width="1" opacity="0.803921568627451" d="M 236.5 78 L 256.5 97 L 276 78.5 L 255.5 98 L 236.5 78 Z " /><path fill="rgb(0,0,0)" stroke="rgb(0,0,0)" stroke-width="1" opacity="0.803921568627451" d="M 46.5 79 L 36.5 90 L 46.5 79 Z " /><path fill="rgb(0,0,0)" stroke="rgb(0,0,0)" stroke-width="1" opacity="0.803921568627451" d="M 465.5 79 L 475.5 90 L 465.5 79 Z " /><path fill="rgb(0,0,0)" stroke="rgb(0,0,0)" stroke-width="1" opacity="0.803921568627451" d="M 130.5 88 L 135 88.5 L 130.5 89 L 130.5 88 Z " /><path fill="rgb(0,0,0)" stroke="rgb(0,0,0)" stroke-width="1" opacity="0.803921568627451" d="M 149.5 88 L 154 88.5 L 149.5 89 L 149.5 88 Z " /><path fill="rgb(0,0,0)" stroke="rgb(0,0,0)" stroke-width="1" opacity="0.803921568627451" d="M 358.5 88 L 363 88.5 L 358.5 89 L 358.5 88 Z " /><path fill="rgb(0,0,0)" stroke="rgb(0,0,0)" stroke-width="1" opacity="0.803921568627451" d="M 377.5 88 L 382 88.5 L 377.5 89 L 377.5 88 Z " /><path fill="rgb(0,0,0)" stroke="rgb(0,0,0)" stroke-width="1" opacity="0.803921568627451" d="M 123.5 89 L 126 89.5 L 123.5 90 L 123.5 89 Z " /><path fill="rgb(0,0,0)" stroke="rgb(0,0,0)" stroke-width="1" opacity="0.803921568627451" d="M 158.5 89 L 161 89.5 L 158.5 90 L 158.5 89 Z " /><path fill="rgb(0,0,0)" stroke="rgb(0,0,0)" stroke-width="1" opacity="0.803921568627451" d="M 351.5 89 L 354 89.5 L 351.5 90 L 351.5 89 Z " /><path fill="rgb(0,0,0)" stroke="rgb(0,0,0)" stroke-width="1" opacity="0.803921568627451" d="M 33.5 93 L 30.5 97 L 33.5 93 Z " /><path fill="rgb(0,0,0)" stroke="rgb(0,0,0)" stroke-width="1" opacity="0.803921568627451" d="M 478.5 93 L 481.5 97 L 478.5 93 Z " /><path fill="rgb(0,0,0)" stroke="rgb(0,0,0)" stroke-width="1" opacity="0.803921568627451" d="M 29.5 98 L 27.5 101 L 29.5 98 Z " /><path fill="rgb(0,0,0)" stroke="rgb(0,0,0)" stroke-width="1" opacity="0.803921568627451" d="M 482.5 98 L 484.5 101 L 482.5 98 Z " /><path fill="rgb(0,0,0)" stroke="rgb(0,0,0)" stroke-width="1" opacity="0.803921568627451" d="M 95.5 99 L 94.5 101 L 95.5 99 Z " /><path fill="rgb(0,0,0)" stroke="rgb(0,0,0)" stroke-width="1" opacity="0.803921568627451" d="M 416.5 99 L 417.5 101 L 416.5 99 Z " /><path fill="rgb(0,0,0)" stroke="rgb(0,0,0)" stroke-width="1" opacity="0.803921568627451" d="M 190.5 100 L 191.5 102 L 190.5 100 Z " /><path fill="rgb(0,0,0)" stroke="rgb(0,0,0)" stroke-width="1" opacity="0.803921568627451" d="M 321.5 100 L 320.5 102 L 321.5 100 Z " /><path fill="rgb(0,0,0)" stroke="rgb(0,0,0)" stroke-width="1" opacity="0.803921568627451" d="M 26.5 102 L 25.5 104 L 26.5 102 Z " /><path fill="rgb(0,0,0)" stroke="rgb(0,0,0)" stroke-width="1" opacity="0.803921568627451" d="M 90.5 102 L 89.5 104 L 90.5 102 Z " /><path fill="rgb(0,0,0)" stroke="rgb(0,0,0)" stroke-width="1" opacity="0.803921568627451" d="M 421.5 102 L 422.5 104 L 421.5 102 Z " /><path fill="rgb(0,0,0)" stroke="rgb(0,0,0)" stroke-width="1" opacity="0.803921568627451" d="M 485.5 102 L 486.5 104 L 485.5 102 Z " /><path fill="rgb(0,0,0)" stroke="rgb(0,0,0)" stroke-width="1" opacity="0.803921568627451" d="M 195.5 103 L 196.5 105 L 195.5 103 Z " /><path fill="rgb(0,0,0)" stroke="rgb(0,0,0)" stroke-width="1" opacity="0.803921568627451" d="M 87.5 104 L 86.5 106 L 87.5 104 Z " /><path fill="rgb(0,0,0)" stroke="rgb(0,0,0)" stroke-width="1" opacity="0.803921568627451" d="M 424.5 104 L 425.5 106 L 424.5 104 Z " /><path fill="rgb(0,0,0)" stroke="rgb(0,0,0)" stroke-width="1" opacity="0.803921568627451" d="M 84.5 106 L 82.5 109 L 84.5 106 Z " /><path fill="rgb(0,0,0)" stroke="rgb(0,0,0)" stroke-width="1" opacity="0.803921568627451" d="M 199.5 106 L 200.5 108 L 199.5 106 Z " /><path fill="rgb(0,0,0)" stroke="rgb(0,0,0)" stroke-width="1" opacity="0.803921568627451" d="M 312.5 106 L 311.5 108 L 312.5 106 Z " /><path fill="rgb(0,0,0)" stroke="rgb(0,0,0)" stroke-width="1" opacity="0.803921568627451" d="M 427.5 106 L 428.5 108 L 427.5 106 Z " /><path fill="rgb(0,0,0)" stroke="rgb(0,0,0)" stroke-width="1" opacity="0.803921568627451" d="M 80.5 109 L 76.5 114 L 80.5 109 Z " /><path fill="rgb(0,0,0)" stroke="rgb(0,0,0)" stroke-width="1" opacity="0.803921568627451" d="M 203.5 109 L 205.5 112 L 203.5 109 Z " /><path fill="rgb(0,0,0)" stroke="rgb(0,0,0)" stroke-width="1" opacity="0.803921568627451" d="M 308.5 109 L 306.5 112 L 308.5 109 Z " /><path fill="rgb(0,0,0)" stroke="rgb(0,0,0)" stroke-width="1" opacity="0.803921568627451" d="M 431.5 109 L 435.5 114 L 431.5 109 Z " /><path fill="rgb(0,0,0)" stroke="rgb(0,0,0)" stroke-width="1" opacity="0.803921568627451" d="M 20.5 111 L 19.5 113 L 20.5 111 Z " /><path fill="rgb(0,0,0)" stroke="rgb(0,0,0)" stroke-width="1" opacity="0.803921568627451" d="M 491.5 111 L 492.5 113 L 491.5 111 Z " /><path fill="rgb(0,0,0)" stroke="rgb(0,0,0)" stroke-width="1" opacity="0.803921568627451" d="M 211.5 116 L 242.5 148 L 211.5 116 Z " /><path fill="rgb(0,0,0)" stroke="rgb(0,0,0)" stroke-width="1" opacity="0.803921568627451" d="M 16.5 118 L 16 119.5 L 13.5 125 L 13 123.5 L 16.5 118 Z " /><path fill="rgb(0,0,0)" stroke="rgb(0,0,0)" stroke-width="1" opacity="0.803921568627451" d="M 70.5 119 L 66.5 124 L 70.5 119 Z " /><path fill="rgb(0,0,0)" stroke="rgb(0,0,0)" stroke-width="1" opacity="0.803921568627451" d="M 442.5 120 L 445.5 124 L 442.5 120 Z " /><path fill="rgb(0,0,0)" stroke="rgb(0,0,0)" stroke-width="1" opacity="0.803921568627451" d="M 293.5 123 L 292.5 125 L 293.5 123 Z " /><path fill="rgb(0,0,0)" stroke="rgb(0,0,0)" stroke-width="1" opacity="0.803921568627451" d="M 64.5 126 L 63.5 128 L 64.5 126 Z " /><path fill="rgb(0,0,0)" stroke="rgb(0,0,0)" stroke-width="1" opacity="0.803921568627451" d="M 447.5 126 L 448.5 128 L 447.5 126 Z " /><path fill="rgb(0,0,0)" stroke="rgb(0,0,0)" stroke-width="1" opacity="0.803921568627451" d="M 61.5 130 L 60.5 132 L 61.5 130 Z " /><path fill="rgb(0,0,0)" stroke="rgb(0,0,0)" stroke-width="1" opacity="0.803921568627451" d="M 286.5 130 L 269.5 148 L 286.5 130 Z " /><path fill="rgb(0,0,0)" stroke="rgb(0,0,0)" stroke-width="1" opacity="0.803921568627451" d="M 58.5 135 L 57.5 137 L 58.5 135 Z " /><path fill="rgb(0,0,0)" stroke="rgb(0,0,0)" stroke-width="1" opacity="0.803921568627451" d="M 453.5 135 L 454.5 137 L 453.5 135 Z " /><path fill="rgb(0,0,0)" stroke="rgb(0,0,0)" stroke-width="1" opacity="0.803921568627451" d="M 253.5 151 L 260 151.5 L 253.5 152 L 253.5 151 Z " /><path fill="rgb(0,0,0)" stroke="rgb(0,0,0)" stroke-width="1" opacity="0.803921568627451" d="M 2.5 157 L 3 159.5 L 2 159.5 L 2.5 157 Z " /><path fill="rgb(0,0,0)" stroke="rgb(0,0,0)" stroke-width="1" opacity="0.803921568627451" d="M 509.5 157 L 510 159.5 L 509 159.5 L 509.5 157 Z " /><path fill="rgb(0,0,0)" stroke="rgb(0,0,0)" stroke-width="1" opacity="0.803921568627451" d="M 1.5 162 L 2 165.5 L 1 165.5 L 1.5 162 Z " /><path fill="rgb(0,0,0)" stroke="rgb(0,0,0)" stroke-width="1" opacity="0.803921568627451" d="M 510.5 163 L 511 166.5 L 510 166.5 L 510.5 163 Z " /><path fill="rgb(0,0,0)" stroke="rgb(0,0,0)" stroke-width="1" opacity="0.803921568627451" d="M 46.5 167 L 47 169.5 L 46 169.5 L 46.5 167 Z " /><path fill="rgb(0,0,0)" stroke="rgb(0,0,0)" stroke-width="1" opacity="0.803921568627451" d="M 465.5 167 L 466 169.5 L 465 169.5 L 465.5 167 Z " /><path fill="rgb(0,0,0)" stroke="rgb(0,0,0)" stroke-width="1" opacity="0.803921568627451" d="M 0.5 171 L 1 179.5 L 0 179.5 L 0.5 171 Z " /><path fill="rgb(0,0,0)" stroke="rgb(0,0,0)" stroke-width="1" opacity="0.803921568627451" d="M 511.5 171 L 512 179.5 L 511 179.5 L 511.5 171 Z " /><path fill="rgb(0,0,0)" stroke="rgb(0,0,0)" stroke-width="1" opacity="0.803921568627451" d="M 45.5 174 L 46 193.5 L 45 193.5 L 45.5 174 Z " /><path fill="rgb(0,0,0)" stroke="rgb(0,0,0)" stroke-width="1" opacity="0.803921568627451" d="M 466.5 174 L 467 193.5 L 466 193.5 L 466.5 174 Z " /><path fill="rgb(0,0,0)" stroke="rgb(0,0,0)" stroke-width="1" opacity="0.803921568627451" d="M 0.5 188 L 1 196.5 L 0 196.5 L 0.5 188 Z " /><path fill="rgb(0,0,0)" stroke="rgb(0,0,0)" stroke-width="1" opacity="0.803921568627451" d="M 511.5 188 L 512 196.5 L 511 196.5 L 511.5 188 Z " /><path fill="rgb(0,0,0)" stroke="rgb(0,0,0)" stroke-width="1" opacity="0.803921568627451" d="M 46.5 198 L 47 200.5 L 46 200.5 L 46.5 198 Z " /><path fill="rgb(0,0,0)" stroke="rgb(0,0,0)" stroke-width="1" opacity="0.803921568627451" d="M 465.5 198 L 466 200.5 L 465 200.5 L 465.5 198 Z " /><path fill="rgb(0,0,0)" stroke="rgb(0,0,0)" stroke-width="1" opacity="0.803921568627451" d="M 1.5 201 L 2 204.5 L 1 204.5 L 1.5 201 Z " /><path fill="rgb(0,0,0)" stroke="rgb(0,0,0)" stroke-width="1" opacity="0.803921568627451" d="M 510.5 201 L 511 204.5 L 510 204.5 L 510.5 201 Z " /><path fill="rgb(0,0,0)" stroke="rgb(0,0,0)" stroke-width="1" opacity="0.803921568627451" d="M 2.5 208 L 3 210.5 L 2 210.5 L 2.5 208 Z " /><path fill="rgb(0,0,0)" stroke="rgb(0,0,0)" stroke-width="1" opacity="0.803921568627451" d="M 509.5 208 L 510 210.5 L 509 210.5 L 509.5 208 Z " /><path fill="rgb(0,0,0)" stroke="rgb(0,0,0)" stroke-width="1" opacity="0.803921568627451" d="M 3.5 213 L 4 215.5 L 3 215.5 L 3.5 213 Z " /><path fill="rgb(0,0,0)" stroke="rgb(0,0,0)" stroke-width="1" opacity="0.803921568627451" d="M 508.5 213 L 509 215.5 L 508 215.5 L 508.5 213 Z " /><path fill="rgb(0,0,0)" stroke="rgb(0,0,0)" stroke-width="1" opacity="0.803921568627451" d="M 58.5 234 L 59.5 236 L 58.5 234 Z " /><path fill="rgb(0,0,0)" stroke="rgb(0,0,0)" stroke-width="1" opacity="0.803921568627451" d="M 453.5 234 L 452.5 236 L 453.5 234 Z " /><path fill="rgb(0,0,0)" stroke="rgb(0,0,0)" stroke-width="1" opacity="0.803921568627451" d="M 61.5 239 L 62.5 241 L 61.5 239 Z " /><path fill="rgb(0,0,0)" stroke="rgb(0,0,0)" stroke-width="1" opacity="0.803921568627451" d="M 450.5 239 L 449.5 241 L 450.5 239 Z " /><path fill="rgb(0,0,0)" stroke="rgb(0,0,0)" stroke-width="1" opacity="0.803921568627451" d="M 63.5 242 L 64.5 244 L 63.5 242 Z " /><path fill="rgb(0,0,0)" stroke="rgb(0,0,0)" stroke-width="1" opacity="0.803921568627451" d="M 448.5 242 L 447.5 244 L 448.5 242 Z " /><path fill="rgb(0,0,0)" stroke="rgb(0,0,0)" stroke-width="1" opacity="0.803921568627451" d="M 65.5 245 L 66.5 247 L 65.5 245 Z " /><path fill="rgb(0,0,0)" stroke="rgb(0,0,0)" stroke-width="1" opacity="0.803921568627451" d="M 446.5 245 L 445.5 247 L 446.5 245 Z " /><path fill="rgb(0,0,0)" stroke="rgb(0,0,0)" stroke-width="1" opacity="0.803921568627451" d="M 68.5 249 L 70.5 252 L 68.5 249 Z " /><path fill="rgb(0,0,0)" stroke="rgb(0,0,0)" stroke-width="1" opacity="0.803921568627451" d="M 443.5 249 L 441.5 252 L 443.5 249 Z " /><path fill="rgb(0,0,0)" stroke="rgb(0,0,0)" stroke-width="1" opacity="0.803921568627451" d="M 73.5 255 L 80.5 263 L 73.5 255 Z " /><path fill="rgb(0,0,0)" stroke="rgb(0,0,0)" stroke-width="1" opacity="0.803921568627451" d="M 438.5 255 L 431.5 263 L 438.5 255 Z " /><path fill="rgb(0,0,0)" stroke="rgb(0,0,0)" stroke-width="1" opacity="0.803921568627451" d="M 20.5 258 L 21.5 260 L 20.5 258 Z " /><path fill="rgb(0,0,0)" stroke="rgb(0,0,0)" stroke-width="1" opacity="0.803921568627451" d="M 491.5 258 L 490.5 260 L 491.5 258 Z " /><path fill="rgb(0,0,0)" stroke="rgb(0,0,0)" stroke-width="1" opacity="0.803921568627451" d="M 23.5 263 L 24.5 265 L 23.5 263 Z " /><path fill="rgb(0,0,0)" stroke="rgb(0,0,0)" stroke-width="1" opacity="0.803921568627451" d="M 488.5 263 L 487.5 265 L 488.5 263 Z " /><path fill="rgb(0,0,0)" stroke="rgb(0,0,0)" stroke-width="1" opacity="0.803921568627451" d="M 25.5 266 L 26.5 268 L 25.5 266 Z " /><path fill="rgb(0,0,0)" stroke="rgb(0,0,0)" stroke-width="1" opacity="0.803921568627451" d="M 486.5 266 L 485.5 268 L 486.5 266 Z " /><path fill="rgb(0,0,0)" stroke="rgb(0,0,0)" stroke-width="1" opacity="0.803921568627451" d="M 27.5 269 L 28.5 271 L 27.5 269 Z " /><path fill="rgb(0,0,0)" stroke="rgb(0,0,0)" stroke-width="1" opacity="0.803921568627451" d="M 484.5 269 L 483.5 271 L 484.5 269 Z " /><path fill="rgb(0,0,0)" stroke="rgb(0,0,0)" stroke-width="1" opacity="0.803921568627451" d="M 29.5 272 L 31.5 275 L 29.5 272 Z " /><path fill="rgb(0,0,0)" stroke="rgb(0,0,0)" stroke-width="1" opacity="0.803921568627451" d="M 481.5 273 L 480.5 275 L 481.5 273 Z " /><path fill="rgb(0,0,0)" stroke="rgb(0,0,0)" stroke-width="1" opacity="0.803921568627451" d="M 33.5 277 L 34.5 279 L 33.5 277 Z " /><path fill="rgb(0,0,0)" stroke="rgb(0,0,0)" stroke-width="1" opacity="0.803921568627451" d="M 478.5 277 L 477.5 279 L 478.5 277 Z " /><path fill="rgb(0,0,0)" stroke="rgb(0,0,0)" stroke-width="1" opacity="0.803921568627451" d="M 96.5 278 L 108.5 291 L 96.5 278 Z " /><path fill="rgb(0,0,0)" stroke="rgb(0,0,0)" stroke-width="1" opacity="0.803921568627451" d="M 415.5 278 L 402.5 292 L 415.5 278 Z " /><path fill="rgb(0,0,0)" stroke="rgb(0,0,0)" stroke-width="1" opacity="0.803921568627451" d="M 37.5 282 L 41.5 287 L 37.5 282 Z " /><path fill="rgb(0,0,0)" stroke="rgb(0,0,0)" stroke-width="1" opacity="0.803921568627451" d="M 474.5 282 L 470.5 287 L 474.5 282 Z " /><path fill="rgb(0,0,0)" stroke="rgb(0,0,0)" stroke-width="1" opacity="0.803921568627451" d="M 47.5 293 L 66.5 313 L 47.5 293 Z " /><path fill="rgb(0,0,0)" stroke="rgb(0,0,0)" stroke-width="1" opacity="0.803921568627451" d="M 464.5 293 L 444.5 314 L 464.5 293 Z " /><path fill="rgb(0,0,0)" stroke="rgb(0,0,0)" stroke-width="1" opacity="0.803921568627451" d="M 115.5 296 L 122.5 304 L 115.5 296 Z " /><path fill="rgb(0,0,0)" stroke="rgb(0,0,0)" stroke-width="1" opacity="0.803921568627451" d="M 396.5 296 L 389.5 304 L 396.5 296 Z " /><path fill="rgb(0,0,0)" stroke="rgb(0,0,0)" stroke-width="1" opacity="0.803921568627451" d="M 127.5 307 L 132.5 313 L 127.5 307 Z " /><path fill="rgb(0,0,0)" stroke="rgb(0,0,0)" stroke-width="1" opacity="0.803921568627451" d="M 384.5 307 L 379.5 313 L 384.5 307 Z " /><path fill="rgb(0,0,0)" stroke="rgb(0,0,0)" stroke-width="1" opacity="0.803921568627451" d="M 137.5 316 L 141.5 321 L 137.5 316 Z " /><path fill="rgb(0,0,0)" stroke="rgb(0,0,0)" stroke-width="1" opacity="0.803921568627451" d="M 374.5 316 L 370.5 321 L 374.5 316 Z " /><path fill="rgb(0,0,0)" stroke="rgb(0,0,0)" stroke-width="1" opacity="0.803921568627451" d="M 75.5 320 L 84.5 330 L 75.5 320 Z " /><path fill="rgb(0,0,0)" stroke="rgb(0,0,0)" stroke-width="1" opacity="0.803921568627451" d="M 435.5 321 L 427.5 330 L 435.5 321 Z " /><path fill="rgb(0,0,0)" stroke="rgb(0,0,0)" stroke-width="1" opacity="0.803921568627451" d="M 145.5 323 L 150.5 329 L 145.5 323 Z " /><path fill="rgb(0,0,0)" stroke="rgb(0,0,0)" stroke-width="1" opacity="0.803921568627451" d="M 366.5 323 L 361.5 329 L 366.5 323 Z " /><path fill="rgb(0,0,0)" stroke="rgb(0,0,0)" stroke-width="1" opacity="0.803921568627451" d="M 154.5 331 L 158.5 336 L 154.5 331 Z " /><path fill="rgb(0,0,0)" stroke="rgb(0,0,0)" stroke-width="1" opacity="0.803921568627451" d="M 357.5 331 L 353.5 336 L 357.5 331 Z " /><path fill="rgb(0,0,0)" stroke="rgb(0,0,0)" stroke-width="1" opacity="0.803921568627451" d="M 89.5 333 L 96.5 341 L 89.5 333 Z " /><path fill="rgb(0,0,0)" stroke="rgb(0,0,0)" stroke-width="1" opacity="0.803921568627451" d="M 421.5 334 L 415.5 341 L 421.5 334 Z " /><path fill="rgb(0,0,0)" stroke="rgb(0,0,0)" stroke-width="1" opacity="0.803921568627451" d="M 162.5 338 L 166.5 343 L 162.5 338 Z " /><path fill="rgb(0,0,0)" stroke="rgb(0,0,0)" stroke-width="1" opacity="0.803921568627451" d="M 349.5 338 L 345.5 343 L 349.5 338 Z " /><path fill="rgb(0,0,0)" stroke="rgb(0,0,0)" stroke-width="1" opacity="0.803921568627451" d="M 100.5 343 L 106.5 350 L 100.5 343 Z " /><path fill="rgb(0,0,0)" stroke="rgb(0,0,0)" stroke-width="1" opacity="0.803921568627451" d="M 411.5 343 L 405.5 350 L 411.5 343 Z " /><path fill="rgb(0,0,0)" stroke="rgb(0,0,0)" stroke-width="1" opacity="0.803921568627451" d="M 169.5 344 L 173.5 349 L 169.5 344 Z " /><path fill="rgb(0,0,0)" stroke="rgb(0,0,0)" stroke-width="1" opacity="0.803921568627451" d="M 341.5 345 L 338.5 349 L 341.5 345 Z " /><path fill="rgb(0,0,0)" stroke="rgb(0,0,0)" stroke-width="1" opacity="0.803921568627451" d="M 177.5 351 L 180.5 355 L 177.5 351 Z " /><path fill="rgb(0,0,0)" stroke="rgb(0,0,0)" stroke-width="1" opacity="0.803921568627451" d="M 334.5 351 L 331.5 355 L 334.5 351 Z " /><path fill="rgb(0,0,0)" stroke="rgb(0,0,0)" stroke-width="1" opacity="0.803921568627451" d="M 110.5 352 L 115.5 358 L 110.5 352 Z " /><path fill="rgb(0,0,0)" stroke="rgb(0,0,0)" stroke-width="1" opacity="0.803921568627451" d="M 401.5 352 L 396.5 358 L 401.5 352 Z " /><path fill="rgb(0,0,0)" stroke="rgb(0,0,0)" stroke-width="1" opacity="0.803921568627451" d="M 184.5 357 L 188.5 362 L 184.5 357 Z " /><path fill="rgb(0,0,0)" stroke="rgb(0,0,0)" stroke-width="1" opacity="0.803921568627451" d="M 327.5 357 L 324.5 361 L 327.5 357 Z " /><path fill="rgb(0,0,0)" stroke="rgb(0,0,0)" stroke-width="1" opacity="0.803921568627451" d="M 119.5 360 L 123.5 365 L 119.5 360 Z " /><path fill="rgb(0,0,0)" stroke="rgb(0,0,0)" stroke-width="1" opacity="0.803921568627451" d="M 392.5 360 L 387.5 366 L 392.5 360 Z " /><path fill="rgb(0,0,0)" stroke="rgb(0,0,0)" stroke-width="1" opacity="0.803921568627451" d="M 191.5 363 L 194.5 367 L 191.5 363 Z " /><path fill="rgb(0,0,0)" stroke="rgb(0,0,0)" stroke-width="1" opacity="0.803921568627451" d="M 320.5 363 L 317.5 367 L 320.5 363 Z " /><path fill="rgb(0,0,0)" stroke="rgb(0,0,0)" stroke-width="1" opacity="0.803921568627451" d="M 127.5 367 L 131.5 372 L 127.5 367 Z " /><path fill="rgb(0,0,0)" stroke="rgb(0,0,0)" stroke-width="1" opacity="0.803921568627451" d="M 384.5 367 L 379.5 373 L 384.5 367 Z " /><path fill="rgb(0,0,0)" stroke="rgb(0,0,0)" stroke-width="1" opacity="0.803921568627451" d="M 198.5 369 L 201.5 373 L 198.5 369 Z " /><path fill="rgb(0,0,0)" stroke="rgb(0,0,0)" stroke-width="1" opacity="0.803921568627451" d="M 313.5 369 L 310.5 373 L 313.5 369 Z " /><path fill="rgb(0,0,0)" stroke="rgb(0,0,0)" stroke-width="1" opacity="0.803921568627451" d="M 135.5 374 L 139.5 379 L 135.5 374 Z " /><path fill="rgb(0,0,0)" stroke="rgb(0,0,0)" stroke-width="1" opacity="0.803921568627451" d="M 204.5 374 L 207.5 378 L 204.5 374 Z " /><path fill="rgb(0,0,0)" stroke="rgb(0,0,0)" stroke-width="1" opacity="0.803921568627451" d="M 307.5 374 L 304.5 378 L 307.5 374 Z " /><path fill="rgb(0,0,0)" stroke="rgb(0,0,0)" stroke-width="1" opacity="0.803921568627451" d="M 376.5 374 L 372.5 379 L 376.5 374 Z " /><path fill="rgb(0,0,0)" stroke="rgb(0,0,0)" stroke-width="1" opacity="0.803921568627451" d="M 211.5 380 L 214.5 384 L 211.5 380 Z " /><path fill="rgb(0,0,0)" stroke="rgb(0,0,0)" stroke-width="1" opacity="0.803921568627451" d="M 300.5 380 L 297.5 384 L 300.5 380 Z " /><path fill="rgb(0,0,0)" stroke="rgb(0,0,0)" stroke-width="1" opacity="0.803921568627451" d="M 143.5 381 L 147.5 386 L 143.5 381 Z " /><path fill="rgb(0,0,0)" stroke="rgb(0,0,0)" stroke-width="1" opacity="0.803921568627451" d="M 368.5 381 L 365.5 385 L 368.5 381 Z " /><path fill="rgb(0,0,0)" stroke="rgb(0,0,0)" stroke-width="1" opacity="0.803921568627451" d="M 217.5 385 L 220.5 389 L 217.5 385 Z " /><path fill="rgb(0,0,0)" stroke="rgb(0,0,0)" stroke-width="1" opacity="0.803921568627451" d="M 294.5 385 L 291.5 389 L 294.5 385 Z " /><path fill="rgb(0,0,0)" stroke="rgb(0,0,0)" stroke-width="1" opacity="0.803921568627451" d="M 150.5 387 L 153.5 391 L 150.5 387 Z " /><path fill="rgb(0,0,0)" stroke="rgb(0,0,0)" stroke-width="1" opacity="0.803921568627451" d="M 361.5 387 L 357.5 392 L 361.5 387 Z " /><path fill="rgb(0,0,0)" stroke="rgb(0,0,0)" stroke-width="1" opacity="0.803921568627451" d="M 223.5 390 L 226.5 394 L 223.5 390 Z " /><path fill="rgb(0,0,0)" stroke="rgb(0,0,0)" stroke-width="1" opacity="0.803921568627451" d="M 287.5 391 L 285.5 394 L 287.5 391 Z " /><path fill="rgb(0,0,0)" stroke="rgb(0,0,0)" stroke-width="1" opacity="0.803921568627451" d="M 157.5 393 L 160.5 397 L 157.5 393 Z " /><path fill="rgb(0,0,0)" stroke="rgb(0,0,0)" stroke-width="1" opacity="0.803921568627451" d="M 354.5 393 L 350.5 398 L 354.5 393 Z " /><path fill="rgb(0,0,0)" stroke="rgb(0,0,0)" stroke-width="1" opacity="0.803921568627451" d="M 229.5 395 L 232.5 399 L 229.5 395 Z " /><path fill="rgb(0,0,0)" stroke="rgb(0,0,0)" stroke-width="1" opacity="0.803921568627451" d="M 281.5 396 L 279.5 399 L 281.5 396 Z " /><path fill="rgb(0,0,0)" stroke="rgb(0,0,0)" stroke-width="1" opacity="0.803921568627451" d="M 164.5 399 L 167.5 403 L 164.5 399 Z " /><path fill="rgb(0,0,0)" stroke="rgb(0,0,0)" stroke-width="1" opacity="0.803921568627451" d="M 347.5 399 L 344.5 403 L 347.5 399 Z " /><path fill="rgb(0,0,0)" stroke="rgb(0,0,0)" stroke-width="1" opacity="0.803921568627451" d="M 236.5 401 L 238.5 404 L 236.5 401 Z " /><path fill="rgb(0,0,0)" stroke="rgb(0,0,0)" stroke-width="1" opacity="0.803921568627451" d="M 275.5 401 L 273.5 404 L 275.5 401 Z " /><path fill="rgb(0,0,0)" stroke="rgb(0,0,0)" stroke-width="1" opacity="0.803921568627451" d="M 341.5 404 L 337.5 409 L 341.5 404 Z " /><path fill="rgb(0,0,0)" stroke="rgb(0,0,0)" stroke-width="1" opacity="0.803921568627451" d="M 171.5 405 L 173.5 408 L 171.5 405 Z " /><path fill="rgb(0,0,0)" stroke="rgb(0,0,0)" stroke-width="1" opacity="0.803921568627451" d="M 242.5 406 L 244.5 409 L 242.5 406 Z " /><path fill="rgb(0,0,0)" stroke="rgb(0,0,0)" stroke-width="1" opacity="0.803921568627451" d="M 269.5 406 L 267.5 409 L 269.5 406 Z " /><path fill="rgb(0,0,0)" stroke="rgb(0,0,0)" stroke-width="1" opacity="0.803921568627451" d="M 177.5 410 L 180.5 414 L 177.5 410 Z " /><path fill="rgb(0,0,0)" stroke="rgb(0,0,0)" stroke-width="1" opacity="0.803921568627451" d="M 247.5 410 L 250.5 414 L 247.5 410 Z " /><path fill="rgb(0,0,0)" stroke="rgb(0,0,0)" stroke-width="1" opacity="0.803921568627451" d="M 334.5 410 L 331.5 414 L 334.5 410 Z " /><path fill="rgb(0,0,0)" stroke="rgb(0,0,0)" stroke-width="1" opacity="0.803921568627451" d="M 263.5 411 L 261.5 414 L 263.5 411 Z " /><path fill="rgb(0,0,0)" stroke="rgb(0,0,0)" stroke-width="1" opacity="0.803921568627451" d="M 253.5 415 L 256.5 417 L 259 415.5 L 255.5 418 L 253.5 415 Z " /><path fill="rgb(0,0,0)" stroke="rgb(0,0,0)" stroke-width="1" opacity="0.803921568627451" d="M 184.5 416 L 187.5 420 L 184.5 416 Z " /><path fill="rgb(0,0,0)" stroke="rgb(0,0,0)" stroke-width="1" opacity="0.803921568627451" d="M 327.5 416 L 324.5 420 L 327.5 416 Z " /><path fill="rgb(0,0,0)" stroke="rgb(0,0,0)" stroke-width="1" opacity="0.803921568627451" d="M 190.5 421 L 193.5 425 L 190.5 421 Z " /><path fill="rgb(0,0,0)" stroke="rgb(0,0,0)" stroke-width="1" opacity="0.803921568627451" d="M 321.5 421 L 318.5 425 L 321.5 421 Z " /><path fill="rgb(0,0,0)" stroke="rgb(0,0,0)" stroke-width="1" opacity="0.803921568627451" d="M 196.5 426 L 199.5 430 L 196.5 426 Z " /><path fill="rgb(0,0,0)" stroke="rgb(0,0,0)" stroke-width="1" opacity="0.803921568627451" d="M 315.5 426 L 312.5 430 L 315.5 426 Z " /><path fill="rgb(0,0,0)" stroke="rgb(0,0,0)" stroke-width="1" opacity="0.803921568627451" d="M 202.5 431 L 205.5 435 L 202.5 431 Z " /><path fill="rgb(0,0,0)" stroke="rgb(0,0,0)" stroke-width="1" opacity="0.803921568627451" d="M 309.5 431 L 306.5 435 L 309.5 431 Z " /><path fill="rgb(0,0,0)" stroke="rgb(0,0,0)" stroke-width="1" opacity="0.803921568627451" d="M 208.5 436 L 211.5 440 L 208.5 436 Z " /><path fill="rgb(0,0,0)" stroke="rgb(0,0,0)" stroke-width="1" opacity="0.803921568627451" d="M 303.5 436 L 300.5 440 L 303.5 436 Z " /><path fill="rgb(0,0,0)" stroke="rgb(0,0,0)" stroke-width="1" opacity="0.803921568627451" d="M 214.5 441 L 217.5 445 L 214.5 441 Z " /><path fill="rgb(0,0,0)" stroke="rgb(0,0,0)" stroke-width="1" opacity="0.803921568627451" d="M 297.5 441 L 294.5 445 L 297.5 441 Z " /><path fill="rgb(0,0,0)" stroke="rgb(0,0,0)" stroke-width="1" opacity="0.803921568627451" d="M 220.5 446 L 222.5 449 L 220.5 446 Z " /><path fill="rgb(0,0,0)" stroke="rgb(0,0,0)" stroke-width="1" opacity="0.803921568627451" d="M 291.5 446 L 289.5 449 L 291.5 446 Z " /><path fill="rgb(0,0,0)" stroke="rgb(0,0,0)" stroke-width="1" opacity="0.803921568627451" d="M 226.5 451 L 228.5 454 L 226.5 451 Z " /><path fill="rgb(0,0,0)" stroke="rgb(0,0,0)" stroke-width="1" opacity="0.803921568627451" d="M 285.5 451 L 283.5 454 L 285.5 451 Z " /><path fill="rgb(0,0,0)" stroke="rgb(0,0,0)" stroke-width="1" opacity="0.803921568627451" d="M 231.5 455 L 233.5 458 L 231.5 455 Z " /><path fill="rgb(0,0,0)" stroke="rgb(0,0,0)" stroke-width="1" opacity="0.803921568627451" d="M 280.5 455 L 277.5 459 L 280.5 455 Z " /><path fill="rgb(0,0,0)" stroke="rgb(0,0,0)" stroke-width="1" opacity="0.803921568627451" d="M 237.5 460 L 239.5 463 L 237.5 460 Z " /><path fill="rgb(0,0,0)" stroke="rgb(0,0,0)" stroke-width="1" opacity="0.803921568627451" d="M 274.5 460 L 272.5 463 L 274.5 460 Z " /><path fill="rgb(0,0,0)" stroke="rgb(0,0,0)" stroke-width="1" opacity="0.803921568627451" d="M 242.5 464 L 243.5 466 L 242.5 464 Z " /><path fill="rgb(0,0,0)" stroke="rgb(0,0,0)" stroke-width="1" opacity="0.803921568627451" d="M 269.5 464 L 268.5 466 L 269.5 464 Z " /><path fill="rgb(0,0,0)" stroke="rgb(0,0,0)" stroke-width="1" opacity="0.803921568627451" d="M 250.5 468 L 253 468.5 L 250.5 469 L 250.5 468 Z " /><path fill="rgb(0,0,0)" stroke="rgb(0,0,0)" stroke-width="1" opacity="0.803921568627451" d="M 259.5 468 L 262 468.5 L 259.5 469 L 259.5 468 Z " /><path fill="rgb(0,0,0)" stroke="rgb(0,0,0)" stroke-width="1" opacity="0" d="M 0 0 L 512 0 L 512 170.5 L 511 170.5 L 509 152.5 L 502 130.5 Q 488.8 99.7 465.5 79 Q 442.9 58.1 409.5 48 L 383.5 43 L 356.5 43 L 330.5 48 Q 312.3 53.3 297.5 62 Q 274 77 255.5 97 Q 232.9 69.6 198.5 54 Q 182.8 47.2 163.5 44 Q 157.3 45.8 155.5 43 L 128.5 43 L 102.5 48 L 73.5 60 Q 51.9 71.9 36 89.5 Q 22.5 104.5 13 123.5 L 5 144.5 L 1 162.5 L 0.5 171 L 0 0 Z " /><path fill="rgb(0,0,0)" stroke="rgb(0,0,0)" stroke-width="1" opacity="0" d="M 135.5 88 L 148.5 88 L 149.5 89 L 162.5 90 Q 177.7 93.3 189.5 100 L 206.5 112 L 242.5 148 L 248.5 151 L 259.5 152 L 269.5 148 L 305.5 112 L 322.5 100 Q 334.3 93.3 349.5 90 L 362.5 89 L 363.5 88 L 376.5 88 L 398.5 92 L 411.5 97 Q 429.4 105.6 442 119.5 Q 456.1 134.4 463 156.5 L 466 170.5 L 466 197.5 L 460 220.5 L 451 238.5 L 441 252.5 L 416.5 278 Q 339.4 350.9 255.5 417 Q 164.2 344.3 81 263.5 Q 62.6 245.9 52 220.5 L 46 197.5 L 46 170.5 Q 52.6 134.1 75.5 114 Q 86.5 104 100.5 97 L 113.5 92 L 135.5 88 Z " /><path fill="rgb(0,0,0)" stroke="rgb(0,0,0)" stroke-width="1" opacity="0" d="M 0.5 197 L 5 223.5 Q 10.7 242.8 20 258.5 L 37 282.5 L 66.5 313 Q 150 391 239.5 463 L 250.5 469 L 261.5 469 Q 271.3 465.8 277.5 459 L 357.5 392 Q 413.5 345 465 293.5 Q 487.4 271.4 501 240.5 L 509 215.5 L 511.5 197 L 512 512 L 0 512 L 0.5 197 Z " /><path fill="rgb(0,0,0)" stroke="rgb(0,0,0)" stroke-width="1" opacity="1" d="M 135.5 43 L 148.5 43 L 149.5 44 L 166.5 45 L 183.5 49 L 197.5 54 Q 214.6 61.4 228.5 72 L 256.5 98 Q 278.7 70.6 312.5 55 L 328.5 49 L 345.5 45 L 362.5 44 L 363.5 43 L 376.5 43 L 377.5 44 L 387.5 44 L 388.5 45 L 399.5 46 L 427.5 55 Q 457.7 68.8 478 92.5 Q 492.7 109.3 502 131.5 L 509 154.5 L 510 166.5 L 511 167.5 L 512 187.5 L 511 188.5 L 510 207.5 L 507 221.5 Q 501.4 241.4 492 257.5 L 477 279.5 L 436.5 321 Q 358.4 392.9 275.5 460 L 263.5 468 L 253.5 469 L 248.5 468 L 241.5 464 L 142.5 381 L 74.5 320 L 42 287.5 Q 21.9 266.1 10 236.5 L 2 207.5 L 0 180.5 L 1 179.5 L 1 166.5 L 2 165.5 L 3 154.5 L 10 131.5 Q 23.7 99.2 48.5 78 Q 64.2 64.2 84.5 55 L 112.5 46 L 123.5 45 L 124.5 44 L 134.5 44 L 135.5 43 Z M 131 88 L 107 94 Q 92 100 81 109 Q 66 120 57 137 L 48 159 L 45 175 L 45 194 L 50 217 Q 58 239 73 256 L 133 313 L 256 418 Q 331 357 403 292 L 439 256 L 451 240 L 462 217 L 467 194 L 467 175 L 464 159 Q 458 138 446 124 Q 434 109 417 99 L 397 91 L 382 88 L 359 88 L 335 94 Q 315 102 302 116 Q 299 115 300 118 L 298 118 L 298 120 L 296 120 L 296 122 L 294 123 L 291 127 Q 288 126 289 129 L 269 148 L 262 151 Q 249 153 244 148 L 204 109 L 183 96 L 161 89 Q 155 91 154 88 L 131 88 Z " /></svg>