<?xml version="1.0" standalone="no"?>
<!DOCTYPE svg PUBLIC "-//W3C//DTD SVG 20010904//EN"
 "http://www.w3.org/TR/2001/REC-SVG-20010904/DTD/svg10.dtd">
<svg version="1.0" xmlns="http://www.w3.org/2000/svg"
 width="512.000000pt" height="512.000000pt" viewBox="0 0 512.000000 512.000000"
 preserveAspectRatio="xMidYMid meet">

<g transform="translate(0.000000,512.000000) scale(0.100000,-0.100000)"
fill="#000000" stroke="none">
<path d="M343 4555 c-169 -46 -301 -186 -333 -354 -14 -74 -14 -3208 0 -3282
24 -126 123 -260 232 -315 113 -57 -26 -54 2318 -54 2344 0 2205 -3 2318 54
109 55 208 189 232 315 14 74 14 3208 0 3282 -24 126 -123 260 -232 315 -113
57 26 54 -2323 53 -1826 0 -2168 -2 -2212 -14z m4329 -351 c65 -9 78 -38 78
-169 0 -76 -5 -121 -21 -171 -44 -145 -160 -328 -296 -467 -37 -38 -324 -272
-638 -520 -313 -248 -631 -501 -705 -562 -170 -141 -276 -214 -376 -262 -70
-33 -88 -38 -154 -38 -66 0 -84 5 -154 38 -100 48 -206 121 -376 262 -74 61
-391 314 -705 562 -314 248 -601 480 -640 515 -193 180 -315 443 -315 680 0
38 5 78 11 89 27 50 -73 48 2160 49 1147 0 2106 -3 2131 -6z m-3787 -1444
c187 -145 516 -407 730 -580 215 -174 411 -331 438 -349 77 -53 286 -149 358
-166 87 -19 211 -19 298 0 72 17 281 113 358 166 27 18 224 175 438 349 215
173 543 435 730 580 187 146 379 303 428 349 l87 84 0 -1107 c0 -774 -3 -1113
-11 -1128 -27 -50 77 -48 -2179 -48 -2256 0 -2152 -2 -2179 48 -8 15 -11 354
-11 1128 l0 1107 88 -84 c48 -46 240 -203 427 -349z"/>
</g>
</svg>
